<svg width="20" height="20" xmlns="http://www.w3.org/2000/svg" p-id="21708" version="1.1" class="icon" t="1732363860005">

 <g>
  <title>Layer 1</title>
  <path stroke="null" id="svg_1" fill="#ff0000" p-id="21709" d="m11.35524,10.00038c0.00001,-0.03154 -0.00152,-0.06307 -0.00435,-0.09451l5.36186,-5.45468c0.39908,-0.40593 0.39908,-1.0634 0,-1.4697c-0.19938,-0.20241 -0.4607,-0.30416 -0.72213,-0.30416c-0.26137,0 -0.52265,0.10175 -0.72219,0.30416l-5.2039,5.29458l-5.29116,-5.29253c-0.20434,-0.20377 -0.47185,-0.30621 -0.7395,-0.30621c-0.26761,0 -0.53526,0.10244 -0.73939,0.30621c-0.4087,0.40896 -0.4087,1.07094 0,1.47968l5.53581,5.53676l-5.53582,5.53704c-0.4087,0.4087 -0.4087,1.07057 0,1.47901c0.4085,0.40886 1.07035,0.40886 1.47889,0l5.33974,-5.34053l5.15533,5.24459c0.39896,0.40614 1.04534,0.40614 1.44432,0c0.39908,-0.40577 0.39908,-1.06324 0,-1.46917l-5.35751,-5.45054z"/>
 </g>
</svg>