<svg width="30" height="30" xmlns="http://www.w3.org/2000/svg" p-id="28846" version="1.1" class="icon" t="1751051951715">

 <g>
  <title>Layer 1</title>
  <path stroke="null" id="svg_1" p-id="28847" fill="#333333" d="m15,6.74929a8.25071,8.25071 0 1 0 0,16.50142a8.25071,8.25071 0 0 0 0,-16.50142zm-10.31339,8.25071c0,-5.69609 4.6173,-10.31339 10.31339,-10.31339s10.31339,4.6173 10.31339,10.31339s-4.6173,10.31339 -10.31339,10.31339s-10.31339,-4.6173 -10.31339,-10.31339zm5.97455,-4.33884a1.03134,1.03134 0 0 1 1.45831,0l2.88053,2.88053l2.88053,-2.88053a1.03134,1.03134 0 1 1 1.45831,1.45831l-2.88053,2.88053l2.88053,2.88053a1.03134,1.03134 0 0 1 -1.45831,1.45831l-2.88053,-2.88053l-2.88053,2.88053a1.03134,1.03134 0 0 1 -1.45831,-1.45831l2.88053,-2.88053l-2.88053,-2.88053a1.03134,1.03134 0 0 1 0,-1.45831z"/>
 </g>
</svg>