<svg width="29.999999999999996" height="29.999999999999996" xmlns="http://www.w3.org/2000/svg" t="1751050209651" class="icon" version="1.1" p-id="5746">
 <g>
  <title>Layer 1</title>
  <path d="m12.0594,21.50914l0.77384,0l0,-5.58938l-0.77384,0c-0.42739,0 -0.77384,-0.34645 -0.77384,-0.77384l0,-1.84836c0,-0.42739 0.34645,-0.77384 0.77384,-0.77384l4.33352,0c0.42739,0 0.77384,0.34645 0.77384,0.77384l0,8.21159l0.77384,0c0.42739,0 0.77384,0.34645 0.77384,0.77384l0,1.84836c0,0.42739 -0.34645,0.77384 -0.77384,0.77384l-5.8812,0c-0.42739,0 -0.77384,-0.34645 -0.77384,-0.77384l0,-1.84836c0,-0.42739 0.34645,-0.77384 0.77384,-0.77384l0,-0.00001zm2.9406,-16.41432c-1.53859,0 -2.78583,1.24724 -2.78583,2.78583s1.24724,2.78583 2.78583,2.78583s2.78583,-1.24724 2.78583,-2.78583s-1.24728,-2.78583 -2.78583,-2.78583z" p-id="5747" fill="#333333" id="svg_1" stroke="null"/>
 </g>

</svg>