<svg width="30" height="30" xmlns="http://www.w3.org/2000/svg" t="1751050653928" class="icon" version="1.1" p-id="13494">
 <g>
  <title>Layer 1</title>
  <path d="m25.51725,20.89604l-8.18009,-14.66042c-0.47806,-0.84988 -1.38105,-1.32794 -2.33717,-1.32794s-1.85911,0.53117 -2.33717,1.32794l-8.18009,14.66042c-0.47806,0.84988 -0.47806,1.91223 0,2.76211s1.38105,1.43417 2.33717,1.43417l16.36017,0c1.00923,0 1.85911,-0.53117 2.33717,-1.43417c0.47806,-0.84988 0.47806,-1.91223 0,-2.76211l0.00001,0zm-11.31402,-10.14543c0,-0.42494 0.37182,-0.79676 0.79676,-0.79676s0.74364,0.3187 0.79676,0.74364l0,6.95839c0,0.42494 -0.37182,0.79676 -0.79676,0.79676s-0.74364,-0.3187 -0.79676,-0.74364l0,-6.95839zm0.79676,11.68584c-0.58429,0 -1.06235,-0.47806 -1.06235,-1.06235s0.47806,-1.06235 1.06235,-1.06235s1.06235,0.47806 1.06235,1.06235s-0.47806,1.06235 -1.06235,1.06235z" fill="#333333" p-id="13495" id="svg_1" stroke="null"/>
 </g>

</svg>